<?xml version="1.0" encoding="UTF-8" standalone="no"?><!DOCTYPE svg PUBLIC "-//W3C//DTD SVG 1.1//EN" "http://www.w3.org/Graphics/SVG/1.1/DTD/svg11.dtd"><!-- Generated by graphviz version 2.40.1 (20161225.0304)
 --><!-- Title: G Pages: 1 --><svg xmlns="http://www.w3.org/2000/svg" xmlns:xlink="http://www.w3.org/1999/xlink" width="886pt" height="420pt" viewBox="0.00 0.00 886.00 420.00">
<g id="graph0" class="graph" transform="scale(1 1) rotate(0) translate(4 416)">
<title>G</title>
<polygon fill="#ffffff" stroke="transparent" points="-4,4 -4,-416 882,-416 882,4 -4,4"/>
<g id="clust1" class="cluster">
<title>cluster_0</title>
<polygon fill="#d3d3d3" stroke="#d3d3d3" points="8,-8 8,-276 870,-276 870,-8 8,-8"/>
</g>
<!-- Y1 -->
<g id="node1" class="node">
<title>Y1</title>
<ellipse fill="#ffffff" stroke="#ffffff" cx="43" cy="-250" rx="27" ry="18"/>
<text text-anchor="middle" x="43" y="-245.8" font-family="Times,serif" font-size="14.00" fill="#000000">y</text>
</g>
<!-- E2 -->
<g id="node2" class="node">
<title>E2</title>
<ellipse fill="#ffffff" stroke="#ffffff" cx="43" cy="-178" rx="27" ry="18"/>
<text text-anchor="middle" x="43" y="-173.8" font-family="Times,serif" font-size="14.00" fill="#000000">E</text>
</g>
<!-- Y1&#45;&gt;E2 -->
<g id="edge3" class="edge">
<title>Y1-&gt;E2</title>
<path fill="none" stroke="#000000" d="M43,-231.8314C43,-224.131 43,-214.9743 43,-206.4166"/>
<polygon fill="#000000" stroke="#000000" points="46.5001,-206.4132 43,-196.4133 39.5001,-206.4133 46.5001,-206.4132"/>
</g>
<!-- I1 -->
<g id="node3" class="node">
<title>I1</title>
<ellipse fill="#ffffff" stroke="#ffffff" cx="115" cy="-250" rx="27" ry="18"/>
<text text-anchor="middle" x="115" y="-245.8" font-family="Times,serif" font-size="14.00" fill="#000000">I</text>
</g>
<!-- L2 -->
<g id="node4" class="node">
<title>L2</title>
<ellipse fill="#ffffff" stroke="#ffffff" cx="115" cy="-178" rx="27" ry="18"/>
<text text-anchor="middle" x="115" y="-173.8" font-family="Times,serif" font-size="14.00" fill="#000000">L</text>
</g>
<!-- I1&#45;&gt;L2 -->
<g id="edge6" class="edge">
<title>I1-&gt;L2</title>
<path fill="none" stroke="#000000" d="M115,-231.8314C115,-224.131 115,-214.9743 115,-206.4166"/>
<polygon fill="#000000" stroke="#000000" points="118.5001,-206.4132 115,-196.4133 111.5001,-206.4133 118.5001,-206.4132"/>
</g>
<!-- E3 -->
<g id="node5" class="node">
<title>E3</title>
<ellipse fill="#ffffff" stroke="#ffffff" cx="115" cy="-106" rx="27" ry="18"/>
<text text-anchor="middle" x="115" y="-101.8" font-family="Times,serif" font-size="14.00" fill="#000000">E</text>
</g>
<!-- L2&#45;&gt;E3 -->
<g id="edge7" class="edge">
<title>L2-&gt;E3</title>
<path fill="none" stroke="#000000" d="M115,-159.8314C115,-152.131 115,-142.9743 115,-134.4166"/>
<polygon fill="#000000" stroke="#000000" points="118.5001,-134.4132 115,-124.4133 111.5001,-134.4133 118.5001,-134.4132"/>
</g>
<!-- N1 -->
<g id="node6" class="node">
<title>N1</title>
<ellipse fill="#ffffff" stroke="#ffffff" cx="259" cy="-250" rx="27" ry="18"/>
<text text-anchor="middle" x="259" y="-245.8" font-family="Times,serif" font-size="14.00" fill="#000000">N</text>
</g>
<!-- S1 -->
<g id="node7" class="node">
<title>S1</title>
<ellipse fill="#ffffff" stroke="#ffffff" cx="187" cy="-250" rx="27" ry="18"/>
<text text-anchor="middle" x="187" y="-245.8" font-family="Times,serif" font-size="14.00" fill="#000000">S</text>
</g>
<!-- H1 -->
<g id="node8" class="node">
<title>H1</title>
<ellipse fill="#ffffff" stroke="#ffffff" cx="403" cy="-250" rx="27" ry="18"/>
<text text-anchor="middle" x="403" y="-245.8" font-family="Times,serif" font-size="14.00" fill="#000000">H</text>
</g>
<!-- A2 -->
<g id="node9" class="node">
<title>A2</title>
<ellipse fill="#ffffff" stroke="#ffffff" cx="331" cy="-178" rx="27" ry="18"/>
<text text-anchor="middle" x="331" y="-173.8" font-family="Times,serif" font-size="14.00" fill="#000000">A</text>
</g>
<!-- H1&#45;&gt;A2 -->
<g id="edge13" class="edge">
<title>H1-&gt;A2</title>
<path fill="none" stroke="#000000" d="M387.7307,-234.7307C377.803,-224.803 364.6847,-211.6847 353.5637,-200.5637"/>
<polygon fill="#000000" stroke="#000000" points="355.7933,-197.8436 346.2473,-193.2473 350.8436,-202.7933 355.7933,-197.8436"/>
</g>
<!-- E22 -->
<g id="node11" class="node">
<title>E22</title>
<ellipse fill="#ffffff" stroke="#ffffff" cx="403" cy="-178" rx="27" ry="18"/>
<text text-anchor="middle" x="403" y="-173.8" font-family="Times,serif" font-size="14.00" fill="#000000">E</text>
</g>
<!-- H1&#45;&gt;E22 -->
<g id="edge15" class="edge">
<title>H1-&gt;E22</title>
<path fill="none" stroke="#000000" d="M403,-231.8314C403,-224.131 403,-214.9743 403,-206.4166"/>
<polygon fill="#000000" stroke="#000000" points="406.5001,-206.4132 403,-196.4133 399.5001,-206.4133 406.5001,-206.4132"/>
</g>
<!-- I3 -->
<g id="node12" class="node">
<title>I3</title>
<ellipse fill="#ffffff" stroke="#ffffff" cx="259" cy="-178" rx="27" ry="18"/>
<text text-anchor="middle" x="259" y="-173.8" font-family="Times,serif" font-size="14.00" fill="#000000">I</text>
</g>
<!-- H1&#45;&gt;I3 -->
<g id="edge16" class="edge">
<title>H1-&gt;I3</title>
<path fill="none" stroke="#000000" d="M381.1295,-239.0647C356.7778,-226.8889 317.238,-207.119 289.7715,-193.3858"/>
<polygon fill="#000000" stroke="#000000" points="291.114,-190.1439 280.6045,-188.8022 287.9835,-196.4049 291.114,-190.1439"/>
</g>
<!-- T3 -->
<g id="node10" class="node">
<title>T3</title>
<ellipse fill="#ffffff" stroke="#ffffff" cx="331" cy="-106" rx="27" ry="18"/>
<text text-anchor="middle" x="331" y="-101.8" font-family="Times,serif" font-size="14.00" fill="#000000">T</text>
</g>
<!-- A2&#45;&gt;T3 -->
<g id="edge14" class="edge">
<title>A2-&gt;T3</title>
<path fill="none" stroke="#000000" d="M331,-159.8314C331,-152.131 331,-142.9743 331,-134.4166"/>
<polygon fill="#000000" stroke="#000000" points="334.5001,-134.4132 331,-124.4133 327.5001,-134.4133 334.5001,-134.4132"/>
</g>
<!-- S3 -->
<g id="node13" class="node">
<title>S3</title>
<ellipse fill="#ffffff" stroke="#ffffff" cx="259" cy="-106" rx="27" ry="18"/>
<text text-anchor="middle" x="259" y="-101.8" font-family="Times,serif" font-size="14.00" fill="#000000">S</text>
</g>
<!-- I3&#45;&gt;S3 -->
<g id="edge17" class="edge">
<title>I3-&gt;S3</title>
<path fill="none" stroke="#000000" d="M259,-159.8314C259,-152.131 259,-142.9743 259,-134.4166"/>
<polygon fill="#000000" stroke="#000000" points="262.5001,-134.4132 259,-124.4133 255.5001,-134.4133 262.5001,-134.4132"/>
</g>
<!-- O1 -->
<g id="node14" class="node">
<title>O1</title>
<ellipse fill="#ffffff" stroke="#ffffff" cx="331" cy="-250" rx="27" ry="18"/>
<text text-anchor="middle" x="331" y="-245.8" font-family="Times,serif" font-size="14.00" fill="#000000">O</text>
</g>
<!-- R1 -->
<g id="node15" class="node">
<title>R1</title>
<ellipse fill="#ffffff" stroke="#ffffff" cx="475" cy="-250" rx="27" ry="18"/>
<text text-anchor="middle" x="475" y="-245.8" font-family="Times,serif" font-size="14.00" fill="#000000">R</text>
</g>
<!-- I22 -->
<g id="node16" class="node">
<title>I22</title>
<ellipse fill="#ffffff" stroke="#ffffff" cx="475" cy="-178" rx="27" ry="18"/>
<text text-anchor="middle" x="475" y="-173.8" font-family="Times,serif" font-size="14.00" fill="#000000">I</text>
</g>
<!-- R1&#45;&gt;I22 -->
<g id="edge20" class="edge">
<title>R1-&gt;I22</title>
<path fill="none" stroke="#000000" d="M475,-231.8314C475,-224.131 475,-214.9743 475,-206.4166"/>
<polygon fill="#000000" stroke="#000000" points="478.5001,-206.4132 475,-196.4133 471.5001,-206.4133 478.5001,-206.4132"/>
</g>
<!-- E33 -->
<g id="node17" class="node">
<title>E33</title>
<ellipse fill="#ffffff" stroke="#ffffff" cx="475" cy="-106" rx="27" ry="18"/>
<text text-anchor="middle" x="475" y="-101.8" font-family="Times,serif" font-size="14.00" fill="#000000">E</text>
</g>
<!-- I22&#45;&gt;E33 -->
<g id="edge21" class="edge">
<title>I22-&gt;E33</title>
<path fill="none" stroke="#000000" d="M475,-159.8314C475,-152.131 475,-142.9743 475,-134.4166"/>
<polygon fill="#000000" stroke="#000000" points="478.5001,-134.4132 475,-124.4133 471.5001,-134.4133 478.5001,-134.4132"/>
</g>
<!-- S11 -->
<g id="node18" class="node">
<title>S11</title>
<ellipse fill="#ffffff" stroke="#ffffff" cx="547" cy="-250" rx="27" ry="18"/>
<text text-anchor="middle" x="547" y="-245.8" font-family="Times,serif" font-size="14.00" fill="#000000">S</text>
</g>
<!-- E222 -->
<g id="node19" class="node">
<title>E222</title>
<ellipse fill="#ffffff" stroke="#ffffff" cx="547" cy="-178" rx="27" ry="18"/>
<text text-anchor="middle" x="547" y="-173.8" font-family="Times,serif" font-size="14.00" fill="#000000">E</text>
</g>
<!-- S11&#45;&gt;E222 -->
<g id="edge24" class="edge">
<title>S11-&gt;E222</title>
<path fill="none" stroke="#000000" d="M547,-231.8314C547,-224.131 547,-214.9743 547,-206.4166"/>
<polygon fill="#000000" stroke="#000000" points="550.5001,-206.4132 547,-196.4133 543.5001,-206.4133 550.5001,-206.4132"/>
</g>
<!-- E1 -->
<g id="node20" class="node">
<title>E1</title>
<ellipse fill="#ffffff" stroke="#ffffff" cx="835" cy="-250" rx="27" ry="18"/>
<text text-anchor="middle" x="835" y="-245.8" font-family="Times,serif" font-size="14.00" fill="#000000">E</text>
</g>
<!-- I11 -->
<g id="node21" class="node">
<title>I11</title>
<ellipse fill="#ffffff" stroke="#ffffff" cx="763" cy="-250" rx="27" ry="18"/>
<text text-anchor="middle" x="763" y="-245.8" font-family="Times,serif" font-size="14.00" fill="#000000">I</text>
</g>
<!-- L22 -->
<g id="node22" class="node">
<title>L22</title>
<ellipse fill="#ffffff" stroke="#ffffff" cx="763" cy="-178" rx="27" ry="18"/>
<text text-anchor="middle" x="763" y="-173.8" font-family="Times,serif" font-size="14.00" fill="#000000">L</text>
</g>
<!-- I11&#45;&gt;L22 -->
<g id="edge28" class="edge">
<title>I11-&gt;L22</title>
<path fill="none" stroke="#000000" d="M763,-231.8314C763,-224.131 763,-214.9743 763,-206.4166"/>
<polygon fill="#000000" stroke="#000000" points="766.5001,-206.4132 763,-196.4133 759.5001,-206.4133 766.5001,-206.4132"/>
</g>
<!-- L3 -->
<g id="node23" class="node">
<title>L3</title>
<ellipse fill="#ffffff" stroke="#ffffff" cx="763" cy="-106" rx="27" ry="18"/>
<text text-anchor="middle" x="763" y="-101.8" font-family="Times,serif" font-size="14.00" fill="#000000">L</text>
</g>
<!-- L22&#45;&gt;L3 -->
<g id="edge29" class="edge">
<title>L22-&gt;L3</title>
<path fill="none" stroke="#000000" d="M763,-159.8314C763,-152.131 763,-142.9743 763,-134.4166"/>
<polygon fill="#000000" stroke="#000000" points="766.5001,-134.4132 763,-124.4133 759.5001,-134.4133 766.5001,-134.4132"/>
</g>
<!-- O11 -->
<g id="node24" class="node">
<title>O11</title>
<ellipse fill="#ffffff" stroke="#ffffff" cx="691" cy="-250" rx="27" ry="18"/>
<text text-anchor="middle" x="691" y="-245.8" font-family="Times,serif" font-size="14.00" fill="#000000">O</text>
</g>
<!-- R2 -->
<g id="node25" class="node">
<title>R2</title>
<ellipse fill="#ffffff" stroke="#ffffff" cx="691" cy="-178" rx="27" ry="18"/>
<text text-anchor="middle" x="691" y="-173.8" font-family="Times,serif" font-size="14.00" fill="#000000">R</text>
</g>
<!-- O11&#45;&gt;R2 -->
<g id="edge31" class="edge">
<title>O11-&gt;R2</title>
<path fill="none" stroke="#000000" d="M691,-231.8314C691,-224.131 691,-214.9743 691,-206.4166"/>
<polygon fill="#000000" stroke="#000000" points="694.5001,-206.4132 691,-196.4133 687.5001,-206.4133 694.5001,-206.4132"/>
</g>
<!-- D3 -->
<g id="node26" class="node">
<title>D3</title>
<ellipse fill="#ffffff" stroke="#ffffff" cx="691" cy="-106" rx="27" ry="18"/>
<text text-anchor="middle" x="691" y="-101.8" font-family="Times,serif" font-size="14.00" fill="#000000">D</text>
</g>
<!-- R2&#45;&gt;D3 -->
<g id="edge32" class="edge">
<title>R2-&gt;D3</title>
<path fill="none" stroke="#000000" d="M691,-159.8314C691,-152.131 691,-142.9743 691,-134.4166"/>
<polygon fill="#000000" stroke="#000000" points="694.5001,-134.4132 691,-124.4133 687.5001,-134.4133 694.5001,-134.4132"/>
</g>
<!-- R11 -->
<g id="node27" class="node">
<title>R11</title>
<ellipse fill="#ffffff" stroke="#ffffff" cx="619" cy="-250" rx="27" ry="18"/>
<text text-anchor="middle" x="619" y="-245.8" font-family="Times,serif" font-size="14.00" fill="#000000">R</text>
</g>
<!-- I222 -->
<g id="node28" class="node">
<title>I222</title>
<ellipse fill="#ffffff" stroke="#ffffff" cx="619" cy="-178" rx="27" ry="18"/>
<text text-anchor="middle" x="619" y="-173.8" font-family="Times,serif" font-size="14.00" fill="#000000">I</text>
</g>
<!-- R11&#45;&gt;I222 -->
<g id="edge34" class="edge">
<title>R11-&gt;I222</title>
<path fill="none" stroke="#000000" d="M619,-231.8314C619,-224.131 619,-214.9743 619,-206.4166"/>
<polygon fill="#000000" stroke="#000000" points="622.5001,-206.4132 619,-196.4133 615.5001,-206.4133 622.5001,-206.4132"/>
</g>
<!-- T33 -->
<g id="node29" class="node">
<title>T33</title>
<ellipse fill="#ffffff" stroke="#ffffff" cx="619" cy="-106" rx="27" ry="18"/>
<text text-anchor="middle" x="619" y="-101.8" font-family="Times,serif" font-size="14.00" fill="#000000">T</text>
</g>
<!-- I222&#45;&gt;T33 -->
<g id="edge35" class="edge">
<title>I222-&gt;T33</title>
<path fill="none" stroke="#000000" d="M619,-159.8314C619,-152.131 619,-142.9743 619,-134.4166"/>
<polygon fill="#000000" stroke="#000000" points="622.5001,-134.4132 619,-124.4133 615.5001,-134.4133 622.5001,-134.4132"/>
</g>
<!-- E4 -->
<g id="node30" class="node">
<title>E4</title>
<ellipse fill="#ffffff" stroke="#ffffff" cx="619" cy="-34" rx="27" ry="18"/>
<text text-anchor="middle" x="619" y="-29.8" font-family="Times,serif" font-size="14.00" fill="#000000">E</text>
</g>
<!-- T33&#45;&gt;E4 -->
<g id="edge36" class="edge">
<title>T33-&gt;E4</title>
<path fill="none" stroke="#000000" d="M619,-87.8314C619,-80.131 619,-70.9743 619,-62.4166"/>
<polygon fill="#000000" stroke="#000000" points="622.5001,-62.4132 619,-52.4133 615.5001,-62.4133 622.5001,-62.4132"/>
</g>
<!-- start -->
<g id="node31" class="node">
<title>start</title>
<polygon fill="none" stroke="#000000" points="313,-412 273.7627,-394 313,-376 352.2373,-394 313,-412"/>
<polyline fill="none" stroke="#000000" points="284.6698,-399.0036 284.6698,-388.9964 "/>
<polyline fill="none" stroke="#000000" points="302.0929,-381.0036 323.9071,-381.0036 "/>
<polyline fill="none" stroke="#000000" points="341.3302,-388.9964 341.3302,-399.0036 "/>
<polyline fill="none" stroke="#000000" points="323.9071,-406.9964 302.0929,-406.9964 "/>
<text text-anchor="middle" x="313" y="-389.8" font-family="Times,serif" font-size="14.00" fill="#000000">start</text>
</g>
<!-- B -->
<g id="node32" class="node">
<title>B</title>
<ellipse fill="none" stroke="#000000" cx="61" cy="-322" rx="27" ry="18"/>
<text text-anchor="middle" x="61" y="-317.8" font-family="Times,serif" font-size="14.00" fill="#000000">B</text>
</g>
<!-- start&#45;&gt;B -->
<g id="edge1" class="edge">
<title>start-&gt;B</title>
<path fill="none" stroke="#000000" d="M288.3783,-386.9652C243.329,-374.094 147.5237,-346.721 95.8196,-331.9485"/>
<polygon fill="#000000" stroke="#000000" points="96.6717,-328.5519 86.0949,-329.17 94.7486,-335.2826 96.6717,-328.5519"/>
</g>
<!-- F -->
<g id="node33" class="node">
<title>F</title>
<ellipse fill="none" stroke="#000000" cx="169" cy="-322" rx="27" ry="18"/>
<text text-anchor="middle" x="169" y="-317.8" font-family="Times,serif" font-size="14.00" fill="#000000">F</text>
</g>
<!-- start&#45;&gt;F -->
<g id="edge4" class="edge">
<title>start-&gt;F</title>
<path fill="none" stroke="#000000" d="M294.1745,-384.5873C270.2018,-372.6009 228.4597,-351.7299 199.8174,-337.4087"/>
<polygon fill="#000000" stroke="#000000" points="201.1603,-334.1671 190.6508,-332.8254 198.0298,-340.4281 201.1603,-334.1671"/>
</g>
<!-- I -->
<g id="node34" class="node">
<title>I</title>
<ellipse fill="none" stroke="#000000" cx="259" cy="-322" rx="27" ry="18"/>
<text text-anchor="middle" x="259" y="-317.8" font-family="Times,serif" font-size="14.00" fill="#000000">I</text>
</g>
<!-- start&#45;&gt;I -->
<g id="edge8" class="edge">
<title>start-&gt;I</title>
<path fill="none" stroke="#000000" d="M302.843,-380.4574C295.6853,-370.9138 285.8982,-357.8643 277.3867,-346.5156"/>
<polygon fill="#000000" stroke="#000000" points="279.9913,-344.155 271.1913,-338.255 274.3913,-348.355 279.9913,-344.155"/>
</g>
<!-- T -->
<g id="node35" class="node">
<title>T</title>
<ellipse fill="none" stroke="#000000" cx="367" cy="-322" rx="27" ry="18"/>
<text text-anchor="middle" x="367" y="-317.8" font-family="Times,serif" font-size="14.00" fill="#000000">T</text>
</g>
<!-- start&#45;&gt;T -->
<g id="edge11" class="edge">
<title>start-&gt;T</title>
<path fill="none" stroke="#000000" d="M323.157,-380.4574C330.3147,-370.9138 340.1018,-357.8643 348.6133,-346.5156"/>
<polygon fill="#000000" stroke="#000000" points="351.6087,-348.355 354.8087,-338.255 346.0087,-344.155 351.6087,-348.355"/>
</g>
<!-- U -->
<g id="node36" class="node">
<title>U</title>
<ellipse fill="none" stroke="#000000" cx="493" cy="-322" rx="27" ry="18"/>
<text text-anchor="middle" x="493" y="-317.8" font-family="Times,serif" font-size="14.00" fill="#000000">U</text>
</g>
<!-- start&#45;&gt;U -->
<g id="edge22" class="edge">
<title>start-&gt;U</title>
<path fill="none" stroke="#000000" d="M334.0006,-385.5998C365.0733,-373.1707 423.5695,-349.7722 460.2897,-335.0841"/>
<polygon fill="#000000" stroke="#000000" points="461.5922,-338.3328 469.5771,-331.3692 458.9924,-331.8335 461.5922,-338.3328"/>
</g>
<!-- W -->
<g id="node37" class="node">
<title>W</title>
<ellipse fill="none" stroke="#000000" cx="691" cy="-322" rx="27" ry="18"/>
<text text-anchor="middle" x="691" y="-317.8" font-family="Times,serif" font-size="14.00" fill="#000000">W</text>
</g>
<!-- start&#45;&gt;W -->
<g id="edge25" class="edge">
<title>start-&gt;W</title>
<path fill="none" stroke="#000000" d="M340.7952,-388.7057C408.0473,-375.8958 579.5315,-343.2321 654.7303,-328.9085"/>
<polygon fill="#000000" stroke="#000000" points="655.5128,-332.3225 664.6813,-327.0131 654.203,-325.4461 655.5128,-332.3225"/>
</g>
<!-- B&#45;&gt;Y1 -->
<g id="edge2" class="edge">
<title>B-&gt;Y1</title>
<path fill="none" stroke="#000000" d="M56.5506,-304.2022C54.5602,-296.2406 52.1668,-286.6671 49.9489,-277.7957"/>
<polygon fill="#000000" stroke="#000000" points="53.2816,-276.6951 47.4606,-267.8425 46.4906,-278.3929 53.2816,-276.6951"/>
</g>
<!-- F&#45;&gt;I1 -->
<g id="edge5" class="edge">
<title>F-&gt;I1</title>
<path fill="none" stroke="#000000" d="M156.7466,-305.6621C149.8423,-296.4564 141.0823,-284.7764 133.3715,-274.4953"/>
<polygon fill="#000000" stroke="#000000" points="136.005,-272.1733 127.2049,-266.2733 130.405,-276.3733 136.005,-272.1733"/>
</g>
<!-- I&#45;&gt;N1 -->
<g id="edge9" class="edge">
<title>I-&gt;N1</title>
<path fill="none" stroke="#000000" d="M259,-303.8314C259,-296.131 259,-286.9743 259,-278.4166"/>
<polygon fill="#000000" stroke="#000000" points="262.5001,-278.4132 259,-268.4133 255.5001,-278.4133 262.5001,-278.4132"/>
</g>
<!-- I&#45;&gt;S1 -->
<g id="edge10" class="edge">
<title>I-&gt;S1</title>
<path fill="none" stroke="#000000" d="M243.7307,-306.7307C233.803,-296.803 220.6847,-283.6847 209.5637,-272.5637"/>
<polygon fill="#000000" stroke="#000000" points="211.7933,-269.8436 202.2473,-265.2473 206.8436,-274.7933 211.7933,-269.8436"/>
</g>
<!-- T&#45;&gt;H1 -->
<g id="edge12" class="edge">
<title>T-&gt;H1</title>
<path fill="none" stroke="#000000" d="M375.7146,-304.5708C379.9597,-296.0807 385.1536,-285.6929 389.8663,-276.2674"/>
<polygon fill="#000000" stroke="#000000" points="393.024,-277.7782 394.3657,-267.2687 386.763,-274.6477 393.024,-277.7782"/>
</g>
<!-- T&#45;&gt;O1 -->
<g id="edge18" class="edge">
<title>T-&gt;O1</title>
<path fill="none" stroke="#000000" d="M358.2854,-304.5708C354.0403,-296.0807 348.8464,-285.6929 344.1337,-276.2674"/>
<polygon fill="#000000" stroke="#000000" points="347.237,-274.6477 339.6343,-267.2687 340.976,-277.7782 347.237,-274.6477"/>
</g>
<!-- T&#45;&gt;R1 -->
<g id="edge19" class="edge">
<title>T-&gt;R1</title>
<path fill="none" stroke="#000000" d="M387.0629,-309.6099C401.6176,-300.5182 421.7028,-287.7577 439,-276 442.1163,-273.8817 445.3548,-271.6246 448.5554,-269.3588"/>
<polygon fill="#000000" stroke="#000000" points="450.7387,-272.1002 456.8286,-263.4305 446.6614,-266.4102 450.7387,-272.1002"/>
</g>
<!-- U&#45;&gt;S11 -->
<g id="edge23" class="edge">
<title>U-&gt;S11</title>
<path fill="none" stroke="#000000" d="M505.2534,-305.6621C512.1577,-296.4564 520.9177,-284.7764 528.6285,-274.4953"/>
<polygon fill="#000000" stroke="#000000" points="531.595,-276.3733 534.7951,-266.2733 525.995,-272.1733 531.595,-276.3733"/>
</g>
<!-- W&#45;&gt;E1 -->
<g id="edge26" class="edge">
<title>W-&gt;E1</title>
<path fill="none" stroke="#000000" d="M714.8914,-313.5828C737.2678,-305.295 771.3165,-291.6332 799,-276 802.451,-274.0512 805.9676,-271.8366 809.3844,-269.5417"/>
<polygon fill="#000000" stroke="#000000" points="811.4133,-272.3937 817.5778,-263.7768 807.3852,-266.6688 811.4133,-272.3937"/>
</g>
<!-- W&#45;&gt;I11 -->
<g id="edge27" class="edge">
<title>W-&gt;I11</title>
<path fill="none" stroke="#000000" d="M706.2693,-306.7307C716.197,-296.803 729.3153,-283.6847 740.4363,-272.5637"/>
<polygon fill="#000000" stroke="#000000" points="743.1564,-274.7933 747.7527,-265.2473 738.2067,-269.8436 743.1564,-274.7933"/>
</g>
<!-- W&#45;&gt;O11 -->
<g id="edge30" class="edge">
<title>W-&gt;O11</title>
<path fill="none" stroke="#000000" d="M691,-303.8314C691,-296.131 691,-286.9743 691,-278.4166"/>
<polygon fill="#000000" stroke="#000000" points="694.5001,-278.4132 691,-268.4133 687.5001,-278.4133 694.5001,-278.4132"/>
</g>
<!-- W&#45;&gt;R11 -->
<g id="edge33" class="edge">
<title>W-&gt;R11</title>
<path fill="none" stroke="#000000" d="M675.7307,-306.7307C665.803,-296.803 652.6847,-283.6847 641.5637,-272.5637"/>
<polygon fill="#000000" stroke="#000000" points="643.7933,-269.8436 634.2473,-265.2473 638.8436,-274.7933 643.7933,-269.8436"/>
</g>
</g>
</svg>